<?xml version="1.0" standalone="no"?>
<!DOCTYPE svg PUBLIC "-//W3C//DTD SVG 20010904//EN"
 "http://www.w3.org/TR/2001/REC-SVG-20010904/DTD/svg10.dtd">
<svg version="1.0" xmlns="http://www.w3.org/2000/svg"
 width="772.000000pt" height="963.000000pt" viewBox="0 0 772.000000 963.000000"
 preserveAspectRatio="xMidYMid meet">

<g transform="translate(0.000000,963.000000) scale(0.100000,-0.100000)"
fill="#000000" stroke="none">
<path d="M1655 8194 c-239 -24 -362 -49 -549 -114 -271 -94 -449 -218 -687
-480 -133 -146 -174 -196 -215 -265 -226 -380 -242 -912 -43 -1520 530 -1630
2424 -3461 4324 -4182 901 -342 1692 -387 2219 -126 178 87 259 153 449 363
210 231 320 412 381 622 100 345 98 682 -5 1105 -28 116 -102 347 -136 423 -8
19 -21 49 -28 65 -181 421 -395 787 -693 1185 -1149 1534 -3033 2745 -4525
2909 -105 12 -427 22 -492 15z m-883 -431 c-127 -153 -212 -340 -258 -568 -28
-139 -26 -477 4 -645 62 -342 165 -640 353 -1010 136 -270 326 -577 512 -830
39 -52 81 -111 95 -130 l24 -35 -26 30 c-44 49 -205 260 -302 395 -316 441
-524 826 -649 1204 -92 278 -126 470 -126 711 0 254 53 464 162 648 34 56 230
277 246 277 3 0 -13 -21 -35 -47z m1866 -497 c37 -19 95 -52 127 -73 149 -98
189 -121 284 -168 55 -27 101 -53 101 -56 0 -3 -19 -16 -43 -29 -41 -22 -43
-22 -82 -6 l-39 17 -151 -75 c-147 -73 -166 -79 -214 -77 -22 1 -101 71 -101
89 0 5 10 18 23 30 l23 22 44 -40 c24 -22 47 -40 52 -40 20 0 228 128 228 140
-1 18 -285 177 -379 213 l-44 17 49 34 c27 19 50 34 52 35 1 1 33 -14 70 -33z
m574 -442 c98 -66 112 -90 117 -192 l3 -83 -28 7 c-16 4 -44 13 -63 20 -32 13
-33 16 -28 54 6 46 1 48 -61 26 -38 -14 -43 -13 -69 7 -38 29 -40 33 -47 87
-8 56 6 98 34 108 48 18 74 12 142 -34z m238 -9 c30 -10 35 -17 38 -46 7 -95
13 -121 29 -115 20 8 87 -37 114 -76 28 -39 30 -135 3 -155 -33 -24 -77 -16
-113 21 -18 19 -39 32 -47 29 -7 -3 -36 3 -64 12 -45 15 -50 19 -43 38 4 12 7
89 6 170 l-3 148 23 -7 c12 -4 38 -12 57 -19z m331 -178 c27 -8 44 -19 43 -28
-16 -251 -16 -245 12 -278 15 -18 25 -34 23 -36 -2 -2 -20 -6 -41 -10 -32 -6
-39 -3 -68 27 -18 18 -36 43 -41 56 -5 13 -9 84 -9 158 0 127 1 135 19 129 10
-3 38 -11 62 -18z m322 -293 c32 -26 47 -61 40 -97 -6 -32 -33 -35 -90 -12
-32 14 -34 14 -22 -1 19 -23 69 -46 85 -40 22 8 17 -22 -5 -34 -31 -16 -62
-12 -116 15 -74 38 -100 81 -100 169 l0 71 35 5 c36 6 111 -28 173 -76z m440
-100 c68 -35 110 -61 250 -151 37 -25 111 -65 163 -90 101 -49 105 -57 43 -89
-25 -12 -34 -12 -71 1 l-43 15 -150 -75 c-186 -93 -214 -96 -275 -34 -22 23
-40 45 -40 48 0 4 11 18 24 30 l24 23 42 -41 c23 -23 47 -41 52 -41 20 0 228
127 228 139 -1 21 -247 159 -393 220 l-29 11 49 34 c26 19 50 34 52 35 3 1 36
-15 74 -35z m585 -444 c37 -23 66 -44 66 -48 -1 -4 9 -25 22 -48 50 -85 20
-140 -70 -130 -70 8 -121 42 -189 124 -38 47 -38 105 1 126 48 27 97 20 170
-24z m177 -100 c11 -4 32 -12 47 -18 16 -7 28 -20 30 -34 3 -20 8 -23 43 -21
34 3 45 -2 82 -39 82 -81 76 -176 -13 -193 -22 -5 -36 0 -58 19 -16 14 -32 24
-36 21 -4 -2 -13 -26 -20 -52 -18 -67 -16 -65 -67 -40 l-46 24 -1 159 c-1 87
-5 167 -10 177 -9 18 -3 18 49 -3z m-3056 -806 c52 -13 98 -27 103 -32 4 -4
-4 -32 -18 -61 -13 -30 -23 -56 -21 -58 2 -2 21 4 41 12 21 9 64 18 96 22 84
8 140 -20 170 -85 31 -66 36 -114 16 -165 -20 -52 -53 -77 -122 -93 -46 -10
-56 -10 -81 6 -29 18 -118 109 -112 114 24 18 56 36 64 36 6 0 35 -16 65 -35
29 -19 56 -33 58 -31 13 14 -41 196 -58 196 -4 0 -38 -22 -76 -49 -65 -46
-140 -117 -160 -154 -9 -16 -14 -16 -87 0 -90 21 -93 27 -52 114 29 60 34 69
88 148 l38 56 -63 19 c-35 10 -65 20 -67 22 -2 2 1 15 7 29 13 28 13 28 171
-11z m589 -416 c38 -24 70 -47 71 -53 1 -5 12 -20 23 -32 13 -14 23 -41 26
-72 4 -43 2 -50 -18 -61 -36 -19 -124 -7 -169 24 -43 30 -92 81 -110 114 -16
31 -13 77 7 94 45 40 89 36 170 -14z m246 -140 c22 -31 36 -67 51 -142 l6 -30
27 45 c26 43 28 44 57 34 63 -22 85 -49 111 -134 15 -52 16 -53 31 -31 10 14
13 32 9 51 -6 30 -5 30 32 23 39 -7 78 -36 87 -65 3 -10 -1 -32 -10 -49 -13
-26 -21 -30 -57 -30 -23 0 -49 -7 -58 -15 -14 -12 -22 -12 -67 1 -47 14 -51
18 -57 52 -9 52 -26 92 -40 92 -6 0 -23 -11 -38 -24 l-26 -25 -48 19 c-41 15
-50 23 -58 51 -22 89 -41 145 -53 157 -17 17 -16 28 3 57 15 23 18 24 44 10
16 -8 40 -30 54 -47z m575 -288 c22 -11 56 -36 76 -55 34 -35 41 -58 29 -103
-6 -20 -11 -22 -43 -16 -20 3 -47 13 -61 21 -25 16 -25 15 2 -13 15 -16 40
-31 54 -32 38 -3 42 -11 16 -32 -25 -21 -50 -17 -117 18 -77 39 -105 87 -105
177 0 53 1 55 33 63 34 9 52 5 116 -28z m239 -143 c12 -11 22 -27 22 -34 0
-12 3 -11 16 2 9 9 19 14 23 13 91 -47 92 -48 66 -98 -18 -36 -22 -36 -44 -8
-11 13 -24 19 -34 15 -25 -9 -21 -38 9 -62 23 -18 25 -24 15 -43 -14 -27 -22
-27 -69 -3 -88 45 -116 113 -96 233 l6 37 32 -16 c17 -8 41 -25 54 -36z m559
-171 c54 -29 143 -83 198 -120 55 -36 139 -83 187 -103 48 -21 86 -42 85 -47
-2 -5 -19 -18 -39 -29 -33 -19 -40 -20 -84 -9 -54 14 -29 23 -250 -84 -51 -24
-106 -44 -123 -44 -42 0 -85 23 -111 60 -20 28 -20 31 -4 55 9 14 20 25 25 25
4 0 27 -18 49 -40 22 -22 44 -40 47 -40 9 0 182 96 206 114 23 18 14 39 -26
60 -18 9 -57 32 -87 51 -53 33 -179 97 -248 124 -30 13 -31 15 -15 27 10 8 29
23 43 34 14 10 30 19 37 20 7 0 56 -24 110 -54z m547 -420 c21 -14 43 -26 48
-26 5 0 13 -10 19 -22 5 -13 19 -39 29 -58 24 -44 24 -69 1 -99 -17 -22 -23
-24 -75 -17 -68 8 -117 36 -174 101 -72 82 -66 142 16 163 42 10 74 0 136 -42z
m301 -161 c22 -13 57 -33 78 -45 21 -11 35 -25 32 -29 -2 -5 1 -14 8 -20 8 -6
20 -29 27 -52 12 -35 12 -45 -1 -68 -13 -23 -21 -26 -65 -25 -76 0 -102 11
-161 67 -82 77 -104 135 -65 169 39 35 93 36 147 3z m288 -40 c43 -18 44 -27
27 -175 l-10 -84 31 -32 c30 -31 31 -32 11 -43 -36 -19 -67 -12 -100 22 -45
46 -52 80 -45 218 7 135 2 129 86 94z m285 -256 c50 -27 92 -54 92 -59 0 -5
-5 -20 -11 -34 l-12 -25 -59 40 c-33 23 -62 39 -64 36 -6 -6 54 -50 103 -75
43 -22 83 -65 83 -88 0 -8 -9 -23 -19 -33 -27 -27 -78 -18 -160 27 -88 48
-135 91 -120 109 15 18 20 17 50 -11 30 -27 108 -70 116 -62 3 2 -19 18 -49
34 -76 43 -97 60 -119 96 -23 38 -24 60 -3 80 27 28 74 18 172 -35z"/>
<path d="M3150 6752 c0 -44 11 -52 42 -28 16 12 15 15 -12 41 l-30 29 0 -42z"/>
<path d="M3497 6594 c-16 -16 -5 -54 20 -73 14 -12 28 -20 29 -18 2 2 -2 23
-9 47 -12 42 -26 58 -40 44z"/>
<path d="M4000 6317 c0 -16 9 -28 25 -35 30 -14 34 1 9 36 -20 29 -34 28 -34
-1z"/>
<path d="M5045 5769 c-16 -25 26 -108 66 -129 17 -10 19 -7 19 29 0 31 -7 49
-31 76 -33 37 -44 42 -54 24z"/>
<path d="M5390 5546 c0 -25 6 -38 25 -50 25 -16 25 -16 25 11 0 48 -11 73 -31
73 -15 0 -19 -7 -19 -34z"/>
<path d="M2764 4437 c-7 -20 14 -68 44 -99 35 -38 46 -35 39 12 -9 66 -67 128
-83 87z"/>
<path d="M3627 3994 c-15 -15 -6 -41 18 -52 20 -9 25 -9 25 2 0 19 -34 59 -43
50z"/>
<path d="M4924 3285 c-10 -24 5 -68 34 -97 34 -37 42 -35 42 11 0 29 -7 46
-30 70 -34 35 -38 37 -46 16z"/>
<path d="M5265 3100 c-3 -14 -2 -37 4 -50 9 -23 56 -80 66 -80 3 0 5 18 5 40
0 32 -7 48 -34 78 l-34 37 -7 -25z"/>
</g>
</svg>
